<?xml version="1.0" encoding="UTF-8"?>
<svg version="1.1" xmlns="http://www.w3.org/2000/svg" width="1200" height="932">
<path d="M0 0 C396 0 792 0 1200 0 C1200 307.56 1200 615.12 1200 932 C804 932 408 932 0 932 C0 624.44 0 316.88 0 0 Z " fill="#D0D0D0" transform="translate(0,0)"/>
<path d="M0 0 C2.81253128 1.28241813 4.86629487 2.61635903 7.04878163 4.79923397 C7.62827085 5.37397238 8.20776007 5.94871079 8.80480957 6.54086551 C9.432831 7.17385512 10.06085243 7.80684473 10.70790482 8.45901585 C11.38449292 9.13299666 12.06108102 9.80697748 12.7581718 10.50138196 C15.04044173 12.77731954 17.31546961 15.0603631 19.59063721 17.34339905 C21.23533443 18.98650908 22.88046924 20.62918119 24.52600551 22.27145094 C28.58337507 26.32306194 32.63605116 30.3793253 36.68680895 34.43754582 C41.53777517 39.29692672 46.39453296 44.15050329 51.25150231 49.00388281 C60.21537567 57.96147584 69.17451099 66.92379377 78.13089752 75.88887215 C87.00116698 84.76774817 95.87327988 93.64477484 104.74794769 102.51925468 C105.29943875 103.0707381 105.85092981 103.62222151 106.41913272 104.19041655 C108.65763864 106.42888155 110.8961569 108.66733421 113.134692 110.90577002 C134.14270325 131.91287476 155.14528062 152.92540436 176.14514508 173.94065276 C194.8184082 192.62754493 213.49536662 211.3107354 232.17578125 229.99047852 C233.37555233 231.19020919 234.57532339 232.38993988 235.77509442 233.58967061 C236.3682282 234.18278404 236.96136199 234.77589747 237.57246952 235.38698404 C240.55797845 238.37239218 243.54348228 241.35780543 246.52898026 244.34322453 C247.11792423 244.93215179 247.70686821 245.52107906 248.31365898 246.1278526 C263.90687323 261.72070205 279.49763753 277.31600065 295.08756518 292.91213602 C295.64180033 293.46659144 296.19603547 294.02104685 296.76706562 294.59230395 C298.99594908 296.82207567 301.22483248 299.05184745 303.45370291 301.28163219 C311.22102205 309.0521159 318.98917052 316.82176965 326.75785128 324.59089205 C336.76521926 334.59885602 346.77089635 344.60850559 356.7736297 354.62110192 C361.6006228 359.45277189 366.42839786 364.28365395 371.25841904 369.11229706 C375.67182294 373.52461229 380.08293891 377.93920094 384.4921647 382.35569125 C386.09546736 383.96081904 387.69962975 385.56508859 389.3046948 387.16845406 C391.47058023 389.33229834 393.63342222 391.49913738 395.79545975 393.66682529 C396.43284584 394.30215607 397.07023194 394.93748685 397.72693276 395.59207007 C402 399.8858451 402 399.8858451 402 401 C67.05 401 -267.9 401 -613 401 C-609.37777047 396.77406555 -605.92302928 392.79706956 -602.02496147 388.88794708 C-601.32751799 388.18652586 -601.32751799 388.18652586 -600.61598474 387.47093451 C-599.0727151 385.92006549 -597.52599049 384.37269174 -595.97921753 382.82531738 C-594.85474097 381.69682014 -593.73047403 380.56811399 -592.60639775 379.43921804 C-589.52870232 376.34962123 -586.44790879 373.26313031 -583.36654925 370.1771884 C-580.03966593 366.8443254 -576.71559882 363.50865541 -573.39108276 360.1734314 C-565.37332074 352.13121433 -557.35066878 344.09388417 -549.32713622 336.05742478 C-547.06174379 333.78831786 -544.79648074 331.51908187 -542.53126383 329.24979973 C-528.46392319 315.15723946 -514.39499854 301.0662627 -500.3212719 286.98007965 C-497.06621261 283.72209075 -493.81116937 280.46408581 -490.55615234 277.20605469 C-489.74714738 276.39630367 -488.93814241 275.58655265 -488.10462214 274.75226372 C-474.97239002 261.60735257 -461.85048367 248.45218291 -448.73272716 235.29282767 C-435.26755638 221.78530596 -421.7930415 208.2871629 -408.30929577 194.79818296 C-400.73747355 187.22294081 -393.16990683 179.64354867 -385.61281967 172.05360413 C-379.18409672 165.59697476 -372.74705139 159.14879496 -366.29874311 152.71172303 C-363.00682394 149.4250129 -359.71917019 146.13430414 -356.44218445 142.83269882 C-353.44651201 139.81470726 -350.4396954 136.80832101 -347.42331351 133.81103176 C-346.3302157 132.72075828 -345.24139295 131.62617961 -344.15717243 130.52707773 C-342.69040954 129.04141027 -341.20930897 127.57175943 -339.72335625 126.10532379 C-338.90185613 125.28246714 -338.080356 124.45961049 -337.23396194 123.61181879 C-335 122 -335 122 -332.83608902 122.13518995 C-330.25822211 123.34938229 -328.61968732 125.01219187 -326.60870361 127.03053284 C-325.73654709 127.89856537 -324.86439056 128.7665979 -323.96580505 129.66093445 C-323.00733715 130.63001936 -322.04901373 131.5992472 -321.09082031 132.56860352 C-320.07610932 133.58416075 -319.06073722 134.59905779 -318.04475403 135.61334229 C-315.28832072 138.36891411 -312.54124126 141.13364432 -309.79572773 143.90009046 C-306.92498784 146.78957146 -304.04576227 149.67057114 -301.16741943 152.55247498 C-295.71808609 158.01113631 -290.27644583 163.47740063 -284.83751655 168.94642633 C-278.64515344 175.17230992 -272.44427977 181.38968722 -266.24267054 187.60635865 C-253.4856094 200.3947859 -240.73929475 213.19387577 -228 226 C-224.71207313 224.56136186 -222.53886505 222.78778996 -220.00951767 220.25561333 C-219.22127287 219.47135062 -218.43302806 218.68708791 -217.62089705 217.87905967 C-216.760976 217.01331294 -215.90105495 216.1475662 -215.01507568 215.25558472 C-213.63787554 213.88094785 -213.63787554 213.88094785 -212.23285317 212.47854054 C-209.6834246 209.93358862 -207.14028194 207.38243473 -204.59810781 204.83023906 C-201.85602741 202.07953108 -199.10817926 199.33459568 -196.36102295 196.58895874 C-191.60180335 191.83078842 -186.84626269 187.06896656 -182.09319305 182.30465317 C-175.22102717 175.41624121 -168.34335289 168.53335091 -161.46431664 161.65180077 C-150.30400144 150.48710707 -139.14816097 139.31795327 -127.99511719 128.14599609 C-117.16021943 117.29274356 -106.3232255 106.44159115 -95.48339844 95.59326172 C-94.81536232 94.92470016 -94.14732621 94.25613859 -93.45904657 93.56731759 C-90.10773155 90.21339252 -86.75637521 86.85950875 -83.4049983 83.50564551 C-55.59692122 55.67683109 -27.79609851 27.84077861 0 0 Z " fill="#EFEFEF" transform="translate(698,446)"/>
<path d="M0 0 C4.3365324 3.33337059 8.18818108 7.08698235 12 11 C12.75023437 11.7528125 13.50046875 12.505625 14.2734375 13.28125 C28.65275506 28.48696512 34.8413787 48.69640289 34.3046875 69.27734375 C33.28323825 89.87094256 23.22204525 109.83322979 8.38671875 124.02734375 C-9.02166223 138.41561281 -30.37658431 146.14273393 -53 144 C-57.46830052 143.34511943 -61.68364538 142.31873902 -66 141 C-67.16402344 140.64808594 -68.32804687 140.29617188 -69.52734375 139.93359375 C-82.09049378 135.80044016 -91.61577396 129.22756117 -101 120 C-102.04994141 118.96939453 -102.04994141 118.96939453 -103.12109375 117.91796875 C-117.76133215 102.53572996 -123.49028277 82.86349811 -123.21484375 62.03515625 C-122.55520005 40.537327 -113.47835917 21.91417175 -98 7 C-70.46174675 -16.81686767 -30.45711674 -21.0590198 0 0 Z " fill="#EFEFEF" transform="translate(342,214)"/>
</svg>
